<svg xmlns="http://www.w3.org/2000/svg" viewBox="0 0 38.51 38.51" id="spotify">
  <g>
    <g>
      <rect width="38.51" height="38.51" fill="#1ed760" rx="6.97" ry="6.97"></rect>
      <path fill="#0aa33d" d="M38.51,31.54v-11.52c-3.31-3.31-6.62-6.63-9.94-9.94-2.37-2.41-5.67-3.91-9.32-3.91-7.22,0-13.08,5.86-13.08,13.08,0,3.65,1.5,6.94,3.91,9.32,3.31,3.31,6.62,6.62,9.94,9.94h11.52c3.83,0,6.97-3.14,6.97-6.97Z"></path>
      <path fill="#fff" d="M19.25,6.18c-7.22,0-13.08,5.86-13.08,13.08s5.86,13.08,13.08,13.08,13.08-5.86,13.08-13.08-5.86-13.08-13.08-13.08ZM24.56,25.42c-.22,0-.36-.07-.56-.19-3.29-1.98-7.12-2.07-10.9-1.29-.21.05-.47.14-.63.14-.51,0-.83-.41-.83-.83,0-.54.32-.8.72-.89,4.32-.95,8.73-.87,12.5,1.38.32.21.51.39.51.87s-.37.81-.8.81ZM25.98,21.96c-.27,0-.46-.12-.65-.22-3.3-1.95-8.21-2.74-12.58-1.55-.25.07-.39.14-.63.14-.56,0-1.02-.46-1.02-1.02s.27-.94.82-1.09c1.47-.41,2.96-.72,5.16-.72,3.42,0,6.73.85,9.33,2.4.43.25.6.58.6,1.04,0,.57-.45,1.03-1.02,1.03ZM27.62,17.94c-.27,0-.44-.07-.68-.21-3.75-2.24-10.47-2.78-14.81-1.57-.19.05-.43.14-.68.14-.7,0-1.23-.54-1.23-1.24s.44-1.12.92-1.26c1.86-.54,3.93-.8,6.2-.8,3.85,0,7.88.8,10.83,2.52.41.24.68.56.68,1.19,0,.72-.58,1.23-1.22,1.23Z"></path>
    </g>
  </g>
</svg>
